<?xml version="1.0" encoding="utf-8"?>
<!-- Generator: Adobe Illustrator 25.4.1, SVG Export Plug-In . SVG Version: 6.00 Build 0)  -->
<svg version="1.1" id="Layer_1" xmlns="http://www.w3.org/2000/svg" xmlns:xlink="http://www.w3.org/1999/xlink" x="0px" y="0px"
	 viewBox="0 0 250.7 66.8" style="enable-background:new 0 0 250.7 66.8;" xml:space="preserve">
<style type="text/css">
	.st0{fill:#A231C2;}
	.st1{fill:none;}
	.st2{fill:#A231C2;stroke:#A29645;stroke-width:0.25;stroke-miterlimit:10;}
	.st3{font-family:'AmericanTypewriter';}
	.st4{font-size:24px;}
</style>
<g>
	<path class="st0" d="M1,27.6l-1,0.2c0-0.2,0.7-0.7,1.2-1.1c0.1-0.1,0.3-0.1,0.2,0.1L1,27.6z M25.5,34c0.7,0.4-0.3,2-0.8,3.1
		c-0.8,1.5-1.6,4.4-2.4,4.4c-1.4-0.8-4.6-2.9-4.6-5.2c0-3.2,2.3-8,3.9-10.9l-0.3-0.5c-1.3,0-5.8,0.6-6.3,0.6
		c-0.2-0.2-0.4-0.4-0.7-0.4c-0.8,0-1.3,0.6-1.6,1.4c-1.3,3.6-2.4,7.3-3.2,11.1c-1.1,0-1.4-0.6-2-1.2c-0.1,0.1-0.2,0.1-0.3,0.1H6.9
		c-0.2,0-0.4-0.1-0.6-0.2l0.3-0.6c-3.2-2.1-1.4-4-0.8-8.2c-1.4-0.2-2.9-0.2-4.3-0.1c0.6-1.1,1.7-1.3,2.6-1.7l-0.8-0.5l3.1-1.3
		c0.3-0.7,0.7-1.3,1.1-1.9c1-1.7,1.3-4.2,2.2-6c2.5-4.7,5.8-9.9,7.5-14c0.2-0.2,0.1-0.4,0.7-0.4c2.8,0,2.6,1.6,4.1,3.1
		c0.3,1.9,0.2,3.9-0.4,5.8h-0.4c-0.5,1.7-2.4,4.3-3.6,6.6c-1,0.5-1.6,1.4-1.6,2.5l1.1-0.3c1.5-1.7,3.6-2,5.7-2
		c0.9,0.1,1.7,0.3,2.5,0.6c3.3-4.1,5.4-8.8,7.8-13.5c0.3-0.4,0.7-0.6,1.2-0.6c1.9,0,2.5,2.7,2.5,4.7c0.1,1.2-0.2,2.4-1,3.3
		c0,1.4-0.7,2.8-1.9,3.6c0.4,1-1.2,3-2,4.4c-0.7-0.2-1.6,0.5-2,1.2s-1,1.9-1.5,2.9c-0.1,0.2,0.3,0.5,0.6-0.1l0.6-1.3
		c0.3-0.5,0.7-1,1.2-0.9c-1.7,3-2.5,6.1-4.6,9.1L26,30.5c-0.2-0.1-0.7,0.2-0.9,0.5c-0.3,0.6-0.7,1.2-1.1,1.7c-0.5,0.7,0,2,0.1,2.5
		c-0.4,0.6-1.1,1.2-1.1,1.9C23.4,38,24.3,36.4,25.5,34z M11.4,27.1l0.5,0.2l0.6-1.6C12,25.7,11.7,26.5,11.4,27.1z M18.5,28.8
		l0.6,0.2c-0.1,0.8-0.5,1.5-1.2,1.9L18.5,28.8z M22.6,35.2L22,36.3l0.3,0.4l0.9-1.8C23.1,34.9,22.7,34.9,22.6,35.2z M25.1,33.1
		c-0.1,0.2-0.3,0.2-0.3,0.1l-0.1-0.6l0.8-1.2c0.1-0.2,0.3-0.3,0.4-0.2l0.2,0.2L25.1,33.1z M28.1,25.3L26,29.5c0.6-0.1,1.1-1,1.4-1.6
		l1.4-2.9C28.5,24.9,28.2,25.1,28.1,25.3z"/>
	<path class="st0" d="M67.1,24.9c0.2,0.4,0.1,0.8-0.3,1C66.7,26,66.5,26,66.4,26L66,25.3c-0.4,0.1-0.7,0.3-0.4,0.9
		c-0.6,0-1.5,0.5-1.5,1.1c0,0.8-0.9,0.5-1.5,0.7c-0.6,0.7-1.2,1.4-1.7,2.1l-0.6-0.5c-1.4,0.8-0.6,1.4-2.1,2.1
		c-0.9,0.3-1.8,0.5-2.8,0.6c-0.2,0.2,0.5,0.4,0.4,0.6l-1,0.3l-1.5-0.9c-0.8,0.5-0.2,1.7-1.3,2.1c-1.3,0.4-2.3,0.8-3.8,1.3
		c-0.7-0.7-1.9-0.8-2.7,0c0,0,0,0,0,0c-1.9-1.2-3.8-2.6-5.5-4.1c-1.3-1-1.7-3.6-1.7-6.1c0-12.9,16.1-21.2,20-21.2
		c1.5,0,2.3,1,3.9,2.2c0,2.4,2.6,4.4,4.8,5.9s2.8,4,2.8,6.9C69.8,21.5,68.8,23.5,67.1,24.9z M61.4,14c-0.2-0.5-0.3-0.8-0.5-0.6
		c-0.2,0.2-0.4,0.3-0.6,0.3c-0.3,0-0.5-0.2-0.6-0.4c-2.8,0-7.7,3.2-9.9,6.7c-2.5,1.2-4.3,4.2-5.5,7.9c1.3,0,2.6-0.2,3.8-0.6l9.5-4
		c1.6-0.6,3.1-1.5,4.3-2.8l2.4-3.1L61.4,14z M48.2,19.9c-0.8-0.5-1.7,0.3-1.9,0.8c0,0.3,0.2,0.6,0.6,0.6c0,0,0,0,0,0L48.2,19.9z
		 M48.4,34.7c-0.2-0.3-0.6-0.6-1-0.6c-0.2,0.1-0.4,0.1-0.6,0.3L48.4,34.7z M55.4,31c0,0.2-0.2,0.5-0.1,0.6s0.6,0,0.9-0.1
		C56.2,31.1,55.9,31,55.4,31z M58.2,29.4c-1,0.5-1.3,0.7-1.3,1.3l1.5-0.8L58.2,29.4z M59.7,28.1L58.9,29l0.2,0.6l1.1-0.6
		C60,28.8,59.9,28.3,59.7,28.1z"/>
	<path class="st0" d="M101.2,25.6c-0.7,0.6-1.6,0.9-2.5,0.9c-0.6,0-0.8-0.1-0.9-0.3c-1,1,0.6,1.7,4.2,0.3c0.3-0.1,0.7,0.1,0.5,0.2
		c-1.3,0.7-2.6,1.3-4,1.6c-1.1,0-2.2,0.3-3.2,0.7c-3.3,1.2-8.6,3.2-12.5,4.7c-0.7,0.3-1.8,1.4-2.5,1.4c-0.9,0.1-1.7,0.2-2.6,0.2
		c-0.4,0-0.7-0.3-0.9-0.6h-1.2c-0.8-0.8-1.7-2.4-2.4-2.4h-0.6C73.5,23,83,8.7,87.9,2.5V1.7c3,0,4.5,2.4,4.5,4.9
		c-1,2.9-2.2,5.7-3.7,8.4c-0.6,1.1-2.3,2.7-3.2,4c-0.5,0.7-0.8,2.1-1.2,2.8c-0.6,1.1-2.4,2-1.7,3.5c3.6-1.1,4.3-1.2,4.7-1.3
		c0.6-0.2,1.3-0.3,2-0.3c0.8,0,1.6,0.3,2.1,1c0.8-0.5,1.7-0.8,2.6-1.1c0.7,0,0.8,0.3,1.5,0.3c1.8-0.4,3.5-0.8,5.2-1.4
		c0.2,0.1,0.4,0.2,0.6,0.3v0.1c-1.8,0.5-3.5,1.1-5.2,1.9l0.5,0.3c2.2-1,4.5-1.8,6.8-2.5c0.5,0.2,1,0.4,1.4,0.8
		c0.8-0.3,2.2-1.1,2.2-0.7C107.3,23.3,103.9,24.9,101.2,25.6z M81.9,21.9c-0.4,1-1,1.9-0.3,2.2l1-2L81.9,21.9z M95.8,27.5
		c-4.3,1-8.4,2.6-12.3,4.5l0.1,0.2l13.1-4.3L95.8,27.5z M85,17.9c-0.5,0-0.7,0.6-0.7,1H85V17.9z M91.7,25.5l1.2-0.6
		c-0.3-0.2-0.8-0.2-1.5,0.2L91.7,25.5z M101.9,22.4c-0.2,0.1-0.6-0.2-0.4-0.3l1.1-0.3c0.6-0.2,0.5,0.2,0.3,0.3L101.9,22.4z
		 M103.3,26.3c-0.4,0.2-0.6,0.1-0.7-0.2l0,0c3.1-1.4,3.5-1.6,3.9-1.3L103.3,26.3z M105.3,22.5c-0.2-0.2-0.5-0.4-0.8-0.5
		c0.2-0.2,2.1-0.8,2.1-0.5S105.7,22.3,105.3,22.5z"/>
	<path class="st0" d="M123.9,11h-0.6c-1.4,2-2.3,5.7-4.7,7l0.2,0.6l-2.1,1.2c-2.1,3-3,6.6-4.1,9.6c-0.2,0.4-0.8,1.3-0.2,1.5
		c0.2,0.1,0.5-1.1,0.6-1.2c1.2-2.8,2.1-6.9,4-9.1c0.7-0.3,0.2,0.4,0.1,0.5c-1.9,3.1-2.8,6.7-4.3,10.4c-0.9,1.8-1.3,3.8-1.2,5.8
		c-0.9-0.3-1.8-0.7-2.6-1.2v-1.7c-0.4,0.3-0.6,0.8-0.6,1.3c-1.3-1-2.4-2.4-2.9-4c0-9.5,9.9-22.6,13.7-29.6c0.4-0.4,1-0.7,1.6-0.7
		c0.6,0,1.1,0.2,1.6,0.4v1.3c1.1,0.5,1.9,1.6,1.9,2.8C124.3,7.6,124.1,9.3,123.9,11z M111.5,32.2l-0.6,1.4c-0.1,0.2,0.1,0.7,0.4,0.2
		l0.7-1.9C111.3,31.2,111.5,32,111.5,32.2z"/>
	<path class="st0" d="M154.9,19.6c-0.4,0.4-0.9,0.6-1.4,0.6l0.8-0.8c-0.4-0.1-0.9,0-1.2,0.3c-0.3,0.3-1.2,1-2.2,1.9l1,0.2
		c-5.7,4.9-12.1,9-19,12.1l-0.5,2.9c-1-0.5-1.8,0-2.9,0c-3.2,0-4.3-3.6-5.5-5.1c0.2-0.6,0.4-1.3,0.4-2l1.3-0.6
		c0.7-0.4,1.3-0.7,1.6-1.6c0.8-2,1.2-3.7,1.9-6l-0.2-0.8c0.7-2.4,2.4-4.2,2.5-6.3c0.1-1.5-1.9-2.4-1.9-3.8s2.6-2.1,4-2.8l0.5,0.4
		c2.5-2.7,2.6-8.2,5.5-8.2c0.5,0,2.4,3.1,2.6,3.8s-0.3,1.9-0.5,3c1.8,0,3.8-0.5,6.5-0.2c-0.5,1,1.1,0.7,1.4,0c0.5,0.4,2,0.3,3.2,0.6
		c4.9,1.5,5.1,5.6,5.4,7.8C157.3,16.7,156.2,18.2,154.9,19.6z M133,32.4l-0.1,0.5l1.5-0.8l0.3-0.6L133,32.4z M137.7,15.2l-0.1,1.6
		c-0.2,0.3-0.6,0.4-1,0.8v0.1c0.8-0.7,0.7,1.7,0.3,1.7c-0.2-0.1-0.5-0.2-0.7-0.3l0,0c0.2,0.3,0.3,0.7,0.4,1.1
		c-0.1,1.2-1.1,2.7-1.4,4.7c1.9-1.2,6.2-2.9,8.8-5.1c0.2,0.2,0.4,0.2,0.8,0.3l-0.3-0.7l0.5-0.3c0.2,0.4,0.4,0.4,0.5,0.4
		c0.5,0,1.5-0.8,3.4-3c1.4,0.5,4.1-3.1,3.8-5C143.9,11.5,140.6,14.3,137.7,15.2z M135.3,31.8l2.7-1.3c-0.3-0.2-0.3-0.6-0.1-0.9
		c0,0,0,0,0,0v-0.1C136.9,30.1,136,30.9,135.3,31.8L135.3,31.8z M148.1,23.9c-1.1,0.1-2.1,0.5-2.9,1.2c-1.2,0.7-3,1.8-4.7,2.9
		c-0.1,0.4-0.3,0.7-0.6,0.9c-0.4-0.4-1-0.2-1.5,0.3c0.4,0.1,0.8,0.2,1.2,0.4C142.7,27.7,145.7,25.5,148.1,23.9z M149.6,22.3l-1.7,1
		c0.3,0.3,0.8,0.3,1.1,0l1.1-0.8L149.6,22.3z M154.5,18.2l-0.4,0.5l0.7,0.2l0.4-0.5L154.5,18.2z"/>
	<path class="st0" d="M181.5,25.2c-0.4,0.9-0.3,3.2-1.4,4.3c0.7,0.4,0.3,1.7-0.4,2.4c0.3,0.8,0.5,1.4-0.6,2.9
		c-0.1,0.2,0.5-0.1,0.6-0.2c-0.1,1.6-0.5,3.3-1.1,4.8c-1.6,0-3.1-1.6-4-1.3c0.1-1.1-0.1-1.5-0.8-1.5l0.1-0.7c0.3,0,0.5-0.2,0.5-0.4
		c0,0,0,0,0-0.1c-0.3,0-0.5-0.2-0.5-0.4c0,0,0,0,0-0.1c0.3-1.5,0.6-2.9,1.1-4.3c0.4,0,0.4,0.7,0.3,1.5c0.4,0,1-2.2,1.1-3.4l-0.6-0.3
		c-0.1,0.8-0.1,2-0.7,1.7c0.2-0.7,0.3-2.6,0.5-3.2l0.9,1.1c-0.1-0.6,0.2-0.8,0.1-1.6c-3-0.1-11,4.2-13.4,5.8l-0.3,0.7l0.2,0.6
		c-0.7,1.8-1.5,3.5-2.5,5.1l-3.3-1.4c-0.2-1.6-2.4-2.3-1.9-3.7h-0.8c1.2-8,10-16.6,15-23.3c2.1-2.7,4.4-5.1,7-7.2
		c0.4-0.3,1.9,0.2,2-0.8c1.1,0.3,2.1,0.8,3,1.5l-1,0.3c-0.1,0.9,1.3-0.1,1.5,0.1c2,1.7,0.8,4.6,1.9,6.1c0.1,0.3-0.1,4.8-0.8,5.3
		c0.1,0.1,0.2,0.1,0.3,0.2c-0.4,1.4-0.7,2.8-0.8,4.2c-0.1,0.6,2,2.4,1.8,4.8C183.4,24.9,182.4,25.1,181.5,25.2z M164.7,29.4
		c-0.2,0.3-0.4,0.6-0.6,1l4-2.1C167.5,27.7,165.7,28.9,164.7,29.4z M167,27.2c-0.4,0.2-0.7,0.2-1.1,0.4l-0.6,0.9
		C165.5,28.4,166.7,27.9,167,27.2z M179.9,9.1c-1,0.1-3.4,3-5.7,6l-0.3-0.3c0.2-0.4,0.3-0.7,0.1-1c-0.8,1-1.2,1.4-0.7,2.4
		c-0.8,1.1-1.5,2-2.2,2.9c-1,1.2-2.4,3.5-3.6,5.2c1.1-0.6,1.9-1.7,4-2.7c1.6-0.6,3.2-1.1,4.9-1.5c0.2-1.1,0.5-2.1,0.9-3.1l0.9,0.8
		c0.6-1.6,1.4-5.9,2-8.3L179.9,9.1z M170.7,27L170.7,27c-1.2,0-1.6,0.1-1.9,1C169.3,27.7,170.1,27.4,170.7,27z M175.3,32.3l-0.2,0.7
		h0.3l0.2-0.8L175.3,32.3z M177,19.6c-0.2,0.6,0.2,0.6,0.5,0.6l0.1-0.6H177z M177.4,18.7l-0.2-0.1l-0.2,0.6h0.5L177.4,18.7z
		 M179,12.2h-0.5l0.4-1.4l0.5-0.2L179,12.2z"/>
	<path class="st0" d="M227.4,30.1c0.2,0.1,0.6,0.4,0.6,0.7c-3.6,0.1-7.2,0.4-10.8,1c-1.1,0.2-0.8,1-1.6,1.6
		c-0.2-0.3-0.9-0.4-1.4-0.3l-0.1,0.6c-2,0.2-1.9,0.2-3.9,0.5c-1.7-2.2-4.4-0.5-6.1,0.7c-1.5,0-3.1-0.2-4.6-0.4v0.7l-9.2-1.2
		c-1.7-2.3-3.3-3.8-3.3-5.6c0-4.9,13.8-10.7,20.9-16.7c-2.8-0.7-7.1,1.4-8.9-0.3c-0.3,0.1-0.4,0.4-0.4,0.7c-0.8,0.1-1.6,0.2-2.4,0.1
		c-0.8-0.1-3.2-3.7-3.1-4.4s0.9-0.6,0.5-1.7c5.3-2.1,13.1-2.5,17.3-2.5c2.3,0,4.6,0.3,6.8,0.8c0.4,1.5,0.6,3.1,0.6,4.7l0.6,0.6v0.8
		h-0.8c-0.8,3-4.6,4.1-6.6,7.2l-0.4-0.6c-1.6,1.6-6.4,3.8-9.5,5.9l-0.5,1c-1.2,0.1-2.4,0.5-3.4,1.3v0.8l-0.6,0.5l-0.4-0.4
		c-0.4,0.4-0.7,0.8-1,1.3c2.9,0.2,6,0.1,9.1,0l0.4,0.5l0.3-0.5c0.6,0,1.3-0.1,2-0.1c1.7,0.6,2.6,1,2.5-0.1c3.8-0.7,6.7-0.4,10.5-0.6
		c0,0.5-0.2,0.9-0.6,1.2c-1.3,0.1-1.8,0.1-2.9,0.2c-1.3,0.1-5.2,0.6-6,1.2l0.1,0.3c4.1-0.4,10.6-1.2,14.3-1.2c0.4,0,0.6,0.1,0.5,0.2
		c-0.6,0.2-1,0.6-1.2,1.2L227.4,30.1z M208.1,34.8c-1.1,0.1-1.7,0.2-2.5,0.2c0.5-0.7,1.5-0.9,2.2-0.4
		C207.9,34.6,208,34.7,208.1,34.8z M208.2,10.5l-0.5,0.2l0.7,1.1l0.4-0.4L208.2,10.5z M227.2,32.2c-3.3,0.1-6.7,0.4-10,0.8
		c0.4-1.3,9.3-1.7,10.2-1.3C227.7,31.8,227.5,32.2,227.2,32.2z M222.1,28c-0.8-0.5-0.8-0.8-0.8-1c1.4-0.1,2.9,0,4.3,0.1
		c0.5,0.1,0.5,0.5,0.4,0.8C224.8,27.9,223.4,28,222.1,28L222.1,28z M226.7,27.9c0.1-0.4,0.2-0.7,0.5-0.7c0.6-0.1,0.9,0.3,1.2,0.5
		c0.1,0.1-0.2,0.2-0.6,0.2H226.7z M228.8,30.7c-0.2-0.2-0.4-0.4-0.4-0.7l1.5-0.1c0.6,0.1,1.7,0.1,1.7,0.4c0,0.1-0.2,0.2-0.5,0.2
		L228.8,30.7z"/>
	<path class="st0" d="M249,10.3c-4.8,2.2-9.8,2.3-14.4,3.7c-0.6,1-1.3,2.2-2.2,3.6c2.1-0.2,6.5-2,8.1-2s2,0.5,3.1,2.4
		c-0.2,0.6,0.1,1.1,0.6,1.4l-0.4,1.2c-3.2,0.5-11.1,1.8-13.8,3c-1.4,0.6-2.6,6.4-2.6,7.6c1.6,1.2,4.1,0.7,5.7,0.3l0.3,0.5
		c0.4,0,0.8-0.3,0.8-0.6c0.8-0.1,1.1,1.2,1.8,1c3.4-1,7.5-2.3,10.2-3.2c0.2-0.1,0.4-0.1,0.4,0.1s-0.7,0.6-1.1,0.8l-3.6,1.3
		c0.4,0.3,0.9,0.6,1.3,0.8c0.2,0.1,0.1,0.2-0.1,0.2c-2.7,0.9-5.9,1.8-8.9,2.5c1,0.4,2,0.4,3,0.1c2.1-0.6,5-1.6,7.6-2.5
		c0.2-0.1,0.5-0.2,0.3,0.3c-0.3,0.6-0.9,1-1.5,1.2c-3.4,1.3-7.9,2.9-11.1,2.9c-6.2,0-10.6-2.8-10.4-10.5c0.1-3.9,3.3-8.7,7.2-16.9
		c-0.4-1.4-0.1-2.8,0.7-4c2.7,0.3,4.2-3.8,6-3.8c1.5,0.2,3,0.5,4.5,1c0.1,1.3-0.3,2.7-1,3.8c1.5,0.3,3.1,0.4,4.6,0.5l0.5,1
		c0.4-0.1,0.9-0.2,1.3-0.3c0.6,0,1.9,0.5,2.6,0.6c0.1,0,0.2,0.1,0.1,0.2c-2.1,1.9-3.6,0.7-3.2,2.3c1.6-0.6,2.9-1,4.4-1.7
		c0.2-0.1,0.5-0.5,0.6-0.2C250.5,9.6,249.6,9.9,249,10.3z M226.6,28.8c-0.2,1-0.3,1.6,0.2,2l0.3-1.4L226.6,28.8z M227.5,25.8l-0.6,2
		l0.4,0.5l0.7-2.5H227.5z M227.6,25.4L227.6,25.4c0.4-0.4,0.8-0.9,1-1.4c-0.7-0.1-0.9,0.3-1,0.8V25.4z M230.6,17.8l0.7-0.1l0.5-1.2
		C231.4,16.4,230.8,17.2,230.6,17.8z M233,14.2l-0.9,1.5l0.7-0.2l0.9-1.5L233,14.2z M239.9,30.1c-1.5,1.1-3.3,1.9-4,0.8
		c2.3-0.5,4.6-1.2,6.8-2.1c0.2-0.1,0.3,0.1,0.2,0.2C242.1,29.8,241,30.2,239.9,30.1z M244.9,8.7l0.2,0.6l1-0.4
		C246,8.6,245.2,8.6,244.9,8.7z"/>
</g>
<rect x="0.1" y="44.4" class="st1" width="250.3" height="22"/>
<text transform="matrix(1 0 0 1 22.088 60.7403)" class="st2 st3 st4">“We taking care”</text>
<g>
	<g>
	</g>
</g>
<g>
	<g>
	</g>
</g>
</svg>
