<svg xmlns="http://www.w3.org/2000/svg" viewBox="0 0 205.95 60.1"><defs><style>.cls-1{fill:#393939;}</style></defs><g id="Layer_5" data-name="Layer 5"><path class="cls-1" d="M28.25,46.89h2.5v1H18.25v-1h2.5v-14c0-2.36-.35-4.05-1.05-5.05a3.59,3.59,0,0,0-3.15-1.5,5.11,5.11,0,0,0-4.55,3V46.89h2.5v1H2v-1H4.5V15.39H2v-1H12v13.1A7,7,0,0,1,15,25.24a10.59,10.59,0,0,1,4.4-.9q8.9,0,8.9,9.65Z"/><path class="cls-1" d="M47,48.39a13.35,13.35,0,0,1-8.6-3.1q-3.85-3.1-3.85-8.8A12.7,12.7,0,0,1,35.62,31a9.82,9.82,0,0,1,3-3.8,14.43,14.43,0,0,1,4-2.12,13.49,13.49,0,0,1,4.4-.73,13.7,13.7,0,0,1,4.42.73,14.27,14.27,0,0,1,4.05,2.12,10.07,10.07,0,0,1,3,3.8,12.29,12.29,0,0,1,1.15,5.4,12,12,0,0,1-1.15,5.35,10,10,0,0,1-3,3.75A13.88,13.88,0,0,1,47,48.39Zm-3.7-3.52a3.85,3.85,0,0,0,3.8,2.52,4,4,0,0,0,3.85-2.55q1.16-2.55,1.15-8.42T50.9,28a4,4,0,0,0-3.85-2.58A3.85,3.85,0,0,0,43.25,28c-.73,1.71-1.1,4.54-1.1,8.47S42.52,43.18,43.25,44.87Z"/><path class="cls-1" d="M74,46.89h2.5v1H64v-1h2.5V15.39H64v-1H74Z"/><path class="cls-1" d="M90.7,46.89h2.5v1H80.7v-1h2.5v-21h-2v-1h9.5Zm.45-28.62a4.35,4.35,0,0,1-4.38,4.37,4.3,4.3,0,0,1-3.12-1.27,4.18,4.18,0,0,1-1.3-3.1,4.44,4.44,0,0,1,4.42-4.43,4.2,4.2,0,0,1,3.1,1.3A4.32,4.32,0,0,1,91.15,18.27Z"/><path class="cls-1" d="M106.9,48.49a9.21,9.21,0,0,1-7-3.2q-3-3.19-3-9t2.9-9.15a9.17,9.17,0,0,1,10.9-2.45,5.29,5.29,0,0,1,2.6,2.55V15.39h-2.5v-1h10v32.5h2.5v1h-10v-2.3C112.45,47.53,110.3,48.49,106.9,48.49Zm6.45-11.55V28.69Q112,26,109.82,26c-1.45,0-2.69.84-3.72,2.5s-1.55,4.31-1.55,7.93.53,6.25,1.6,7.92,2.35,2.38,3.85,2.15a3.59,3.59,0,0,0,1.9-.8C112.86,44.76,113.35,41.84,113.35,36.94Z"/><path class="cls-1" d="M150,47.77a12.69,12.69,0,0,1-3.25.37c-2.74,0-4.45-.81-5.15-2.45q-2.51,2.6-7.65,2.6A7.58,7.58,0,0,1,129.37,47a4.36,4.36,0,0,1-1.77-3.78,5.92,5.92,0,0,1,2.6-5.17q2.6-1.83,9.1-2.58l2-.25V32.79a17.26,17.26,0,0,0-.65-5.85,2.53,2.53,0,0,0-2.58-1.5,3.85,3.85,0,0,0-2.47.53,1.21,1.21,0,0,0-.4,1.2c.1.45.26,1,.5,1.77a6.27,6.27,0,0,1,.35,1.75A3.58,3.58,0,0,1,135,33.32a3.55,3.55,0,0,1-2.6,1.07,3.64,3.64,0,0,1-2.62-1.07,3.53,3.53,0,0,1-1.1-2.63,5.24,5.24,0,0,1,2.62-4.37q2.63-1.83,7.85-1.83t7.45,2.05q2.24,2.05,2.23,7.25v9c0,1.77.21,2.88.65,3.33s1.23.54,2.4.27v.5A4.48,4.48,0,0,1,150,47.77Zm-14-2.6a3.89,3.89,0,0,0,2.67,1,3.34,3.34,0,0,0,2.68-1.5v-8.5l-1.8.25a6.14,6.14,0,0,0-3.73,1.75,4.94,4.94,0,0,0-1.22,4.05A4.53,4.53,0,0,0,136,45.17Z"/><path class="cls-1" d="M154.1,47.89v-.75l14.15-21.25H165.3q-8.85,0-8.85,8.25h-.8V24.89h21v.6l-14,21.4h3.05a25.28,25.28,0,0,0,4.35-.3,7.89,7.89,0,0,0,3-1.2q2.6-1.76,2.6-7.45h.7v10Z"/><path class="cls-1" d="M203.55,37.89h-15.1q.5,8.8,6.85,8.8a11.47,11.47,0,0,0,3.87-.8,6.37,6.37,0,0,0,3.18-2.25l.7.5a8,8,0,0,1-3.75,3,12.74,12.74,0,0,1-5.28,1.2,19.49,19.49,0,0,1-4.72-.52,14.31,14.31,0,0,1-4.1-1.78,8.2,8.2,0,0,1-3.13-3.75A14.69,14.69,0,0,1,181,36.29q0-6,3.35-9a11.92,11.92,0,0,1,8.12-2.93,10.73,10.73,0,0,1,8,3.2Q203.55,30.78,203.55,37.89Zm-15.15-1h8.15a29.76,29.76,0,0,0-1-8q-1-3.45-3.12-3.45t-3.1,3.33a27.47,27.47,0,0,0-.95,7.62Z"/></g></svg>